<?xml version="1.0" standalone="no"?>
<!DOCTYPE svg PUBLIC "-//W3C//DTD SVG 20010904//EN"
 "http://www.w3.org/TR/2001/REC-SVG-20010904/DTD/svg10.dtd">
<svg version="1.0" xmlns="http://www.w3.org/2000/svg"
 width="1024.000000pt" height="1024.000000pt" viewBox="0 0 1024.000000 1024.000000"
 preserveAspectRatio="xMidYMid meet">

<g transform="translate(0.000000,1024.000000) scale(0.100000,-0.100000)"
fill="#000000" stroke="none">
<path d="M4895 8894 c-546 -42 -1004 -158 -1450 -367 -426 -199 -749 -421
-1050 -722 -661 -659 -1056 -1479 -1146 -2378 -18 -185 -7 -686 20 -857 75
-483 218 -916 430 -1293 127 -228 230 -373 427 -602 588 -684 1402 -1152 2259
-1299 278 -47 413 -59 690 -59 258 0 387 10 640 49 684 105 1345 406 1862 847
116 100 333 306 333 317 0 4 -23 1 -52 -6 -70 -19 -210 -18 -283 1 -146 38
-228 100 -377 286 -110 137 -112 138 -132 121 -12 -10 -48 -43 -81 -72 -104
-93 -402 -310 -427 -310 -15 0 -8 -35 25 -130 29 -82 36 -95 58 -98 52 -6 70
-13 105 -45 113 -99 88 -264 -48 -322 -52 -21 -96 -19 -148 7 -118 61 -146
202 -60 296 17 18 30 38 30 43 0 5 -16 49 -36 98 l-37 89 -111 -59 c-282 -148
-663 -269 -1048 -334 l-37 -6 6 -184 6 -185 -45 0 -46 0 -7 180 -8 180 -138 2
c-77 1 -147 2 -156 2 -15 1 -20 -18 -35 -114 -10 -63 -23 -146 -29 -184 l-11
-68 -41 6 c-23 4 -43 8 -44 10 -2 2 8 80 23 175 14 95 24 178 21 185 -3 7 -36
18 -74 25 -37 6 -111 23 -163 36 -52 12 -96 22 -98 20 -5 -4 -28 -99 -42 -169
l-12 -58 -40 5 c-22 3 -42 8 -45 10 -4 5 29 190 43 238 3 12 -34 30 -163 79
-93 35 -235 98 -318 140 -82 41 -153 76 -156 78 -4 2 -26 -32 -49 -75 -24 -43
-44 -79 -45 -81 -4 -4 -33 12 -58 32 -17 13 -16 18 22 94 l39 81 -66 43 c-176
114 -405 302 -553 455 -286 293 -471 576 -598 914 -22 57 -44 105 -49 107 -5
1 -49 -13 -98 -31 l-89 -34 -7 -43 c-22 -130 -129 -201 -263 -176 -75 14 -145
108 -145 196 0 121 117 226 229 205 45 -8 115 -48 135 -77 11 -15 19 -18 28
-11 7 6 47 23 88 38 41 15 78 31 83 35 4 3 -1 35 -12 71 -97 314 -140 710
-112 1033 7 76 15 144 17 150 3 7 -33 19 -93 32 -69 15 -99 18 -102 10 -2 -6
-25 -32 -50 -57 -61 -61 -124 -78 -204 -55 -67 19 -99 45 -134 103 -56 96 -28
222 65 287 59 42 150 48 217 16 52 -25 99 -82 116 -141 12 -38 12 -38 101 -58
50 -12 94 -19 99 -15 5 3 9 14 9 24 0 31 68 248 110 348 l38 94 -41 36 c-23
20 -65 58 -94 84 l-52 47 -35 -14 c-91 -38 -214 -3 -271 77 -41 59 -48 156
-15 223 63 129 230 161 336 63 56 -52 79 -110 71 -186 -3 -31 -8 -64 -10 -72
-4 -10 20 -38 69 -80 41 -36 78 -66 83 -68 5 -2 35 46 67 105 65 122 139 244
194 318 l37 50 -54 60 c-68 74 -138 214 -159 315 -43 205 38 437 206 593 131
121 273 176 480 184 153 6 272 -17 394 -76 l80 -39 63 31 c44 22 63 37 63 50
0 11 -14 60 -30 109 l-30 90 33 37 c83 92 145 210 178 339 10 42 21 77 23 79
1 2 18 -10 37 -27 108 -98 209 -139 337 -140 55 0 93 5 112 15 17 9 30 12 30
7 0 -8 -79 -141 -490 -822 -68 -113 -133 -220 -145 -237 l-22 -33 -12 56 c-24
106 -95 215 -186 283 -118 89 -212 121 -238 80 -18 -28 2 -63 64 -112 33 -27
58 -51 56 -54 -8 -7 -567 -9 -567 -1 0 3 30 32 66 64 81 71 92 89 68 115 -9
10 -29 19 -44 19 -49 0 -152 -62 -225 -135 -118 -118 -161 -227 -153 -391 3
-74 9 -101 36 -158 41 -88 141 -188 233 -234 l65 -33 -103 -103 c-119 -119
-153 -178 -153 -267 0 -42 6 -65 23 -90 41 -61 40 -61 393 -56 l320 5 -150
-77 c-421 -215 -591 -383 -642 -631 -37 -183 26 -354 190 -516 74 -73 170
-140 413 -288 78 -48 145 -91 148 -95 2 -5 -124 -10 -282 -10 -311 -2 -318 -3
-366 -60 -31 -38 -41 -79 -32 -139 5 -37 16 -55 46 -84 l40 -38 154 0 c85 0
155 -3 154 -7 0 -5 -46 -37 -101 -73 -134 -86 -245 -191 -288 -272 -30 -55
-34 -72 -35 -138 0 -61 5 -82 24 -113 12 -20 31 -42 41 -47 12 -6 177 -10 425
-10 l407 0 27 29 c74 79 62 234 -22 295 -27 20 -46 21 -329 26 l-300 5 92 69
c106 79 262 172 434 258 188 94 236 144 204 211 -23 47 -130 159 -203 213 -61
45 -78 64 -56 64 23 0 171 123 217 181 103 128 160 287 149 416 -13 153 -85
292 -210 405 -51 46 -188 138 -243 162 -23 10 -42 22 -42 25 1 3 49 30 108 60
163 82 236 133 265 183 32 56 40 102 27 167 l-10 53 57 96 c31 53 112 192 181
307 118 198 202 337 467 775 99 162 455 762 584 983 24 42 48 74 52 70 7 -8
100 -176 419 -763 232 -427 216 -403 281 -419 82 -20 275 -97 359 -143 41 -23
114 -67 161 -99 239 -160 444 -405 540 -644 40 -100 65 -124 113 -105 57 21
47 106 -28 255 -146 287 -427 563 -717 705 -46 22 -95 46 -108 53 -27 14 -261
421 -249 433 6 5 168 -40 283 -79 122 -42 299 -114 420 -173 l90 -43 53 52
c30 29 76 78 103 109 l50 57 -17 32 c-12 23 -15 50 -12 100 5 86 40 140 119
182 46 25 62 28 107 24 161 -16 252 -180 179 -325 l-25 -50 95 -143 c53 -79
97 -145 98 -147 2 -2 28 4 58 13 45 13 64 14 97 5 77 -21 149 -110 150 -186 0
-16 -12 -54 -26 -82 -47 -95 -152 -129 -251 -81 l-43 21 -55 -39 c-30 -21 -55
-41 -55 -45 0 -4 30 -40 68 -80 105 -113 172 -201 276 -359 85 -131 98 -146
119 -142 49 10 135 -17 186 -57 68 -54 96 -114 94 -206 l-1 -70 116 -50 116
-50 40 42 c95 98 246 73 306 -51 80 -165 -88 -332 -257 -255 -44 19 -103 95
-103 131 0 23 -9 28 -138 83 l-113 49 -22 -21 -23 -22 38 -151 c21 -83 45
-206 54 -274 l17 -123 43 31 c128 90 299 9 299 -142 0 -31 -3 -65 -8 -77 -6
-17 -1 -23 31 -37 47 -21 61 -21 86 -2 55 42 156 -15 156 -88 0 -35 -24 -83
-49 -97 -11 -5 -38 -10 -61 -10 -35 0 -48 6 -78 37 -21 20 -65 51 -100 69
l-62 32 -37 -19 c-21 -11 -60 -19 -88 -20 -47 -1 -53 -4 -92 -48 l-42 -47 -6
-115 c-12 -277 -80 -596 -186 -869 -26 -69 -29 -83 -18 -98 8 -9 59 -68 114
-131 252 -285 276 -315 320 -406 57 -116 80 -226 71 -345 l-6 -85 61 95 c223
345 359 657 469 1075 277 1056 99 2103 -515 3030 -349 527 -776 929 -1300
1220 -486 271 -929 413 -1490 480 -126 15 -508 27 -610 19z m-1301 -1676 c14
-29 26 -65 26 -80 l0 -28 -425 0 c-236 0 -425 4 -425 9 0 19 31 94 50 122 l21
29 364 0 363 0 26 -52z m-5 -212 c-2 -2 -77 -42 -166 -89 -89 -47 -201 -110
-249 -140 l-88 -55 -35 20 c-145 81 -209 136 -250 217 l-21 41 352 3 c194 1
377 3 407 5 30 1 52 0 50 -2z m-40 -258 c-35 -51 -75 -110 -91 -130 l-28 -36
-77 33 c-43 19 -79 37 -80 42 -2 5 54 39 124 76 71 37 146 77 168 90 22 13 42
23 43 21 2 -1 -25 -44 -59 -96z m-214 -279 c5 -5 -55 -9 -159 -9 -101 0 -166
4 -164 9 2 6 29 30 61 55 l58 45 97 -45 c53 -25 101 -50 107 -55z m180 -147
c34 -52 43 -98 18 -103 -10 -2 -165 -3 -345 -1 -372 3 -355 -2 -314 88 l25 54
295 0 296 0 25 -38z m-236 -584 l106 -63 -103 -3 c-56 -1 -148 -1 -204 0
l-103 3 94 63 c52 34 97 62 100 62 2 0 52 -28 110 -62z m233 -197 c32 -28 105
-138 97 -145 -7 -7 -68 -8 -442 -7 l-368 1 6 23 c12 41 73 132 96 144 17 9
101 13 301 13 l277 0 33 -29z m115 -328 c-2 -38 -10 -80 -16 -95 l-11 -28
-359 0 c-328 0 -361 2 -377 17 -19 20 -59 103 -69 146 l-7 27 422 0 423 0 -6
-67z m-98 -228 c9 -10 -55 -78 -138 -149 -49 -42 -92 -76 -95 -76 -21 0 -336
213 -336 228 0 7 561 4 569 -3z m-1490 -376 c7 -23 10 -43 8 -45 -10 -11 -251
-54 -258 -47 -4 4 -10 24 -14 44 l-7 35 124 26 c68 14 126 26 129 26 3 1 11
-16 18 -39z m-342 -31 c43 -40 19 -118 -36 -118 -42 0 -74 30 -74 68 0 65 64
94 110 50z m6535 -199 l118 -23 -7 -41 c-3 -22 -6 -41 -7 -42 -1 -1 -61 10
-134 24 -119 24 -132 29 -132 47 0 40 11 64 28 61 10 -2 70 -14 134 -26z
m-4722 13 c0 -5 -54 -34 -121 -67 l-121 -58 -160 6 c-99 4 -165 10 -174 18
-20 17 -17 52 7 83 l20 26 275 0 c151 0 274 -4 274 -8z m5009 -58 c12 -15 21
-34 21 -44 0 -31 -39 -70 -70 -70 -58 0 -92 79 -53 122 25 28 77 24 102 -8z
m-443 -385 c65 -27 120 -51 121 -53 5 -5 -21 -76 -27 -76 -4 0 -54 21 -111 46
-57 25 -112 48 -121 51 -10 3 -18 9 -18 13 0 17 23 70 30 70 5 0 61 -23 126
-51z m274 -81 c28 -30 27 -82 -2 -102 -33 -23 -74 -20 -92 6 -51 72 35 159 94
96z m-4920 -108 c22 -12 55 -65 64 -102 l6 -28 -329 0 c-212 0 -332 4 -336 10
-9 14 22 117 38 123 24 10 538 7 557 -3z m-1065 -155 c11 -19 17 -36 15 -38
-45 -33 -191 -127 -199 -127 -16 0 -54 61 -45 70 18 18 189 129 200 130 6 0
19 -16 29 -35z m-275 -145 c24 -24 26 -77 3 -102 -36 -40 -113 -4 -113 54 0
35 32 68 65 68 14 0 34 -9 45 -20z m508 -230 c12 -16 22 -31 22 -34 0 -3 -41
-37 -91 -76 l-92 -71 -24 37 c-17 25 -22 39 -15 46 17 17 166 128 173 128 3 0
15 -13 27 -30z m-225 -172 c26 -30 22 -73 -10 -97 -43 -35 -103 -3 -103 53 0
36 7 48 35 64 25 14 55 6 78 -20z m521 -153 l30 -24 -29 -42 c-16 -23 -57 -71
-91 -108 l-62 -66 -28 21 c-16 12 -29 26 -29 32 0 11 166 211 175 211 3 0 18
-11 34 -24z m-217 -247 c27 -26 30 -73 6 -100 -25 -28 -77 -24 -102 8 -27 34
-27 62 1 91 27 29 65 29 95 1z m518 -63 c14 -13 25 -27 25 -30 0 -6 -116 -183
-131 -199 -9 -10 -69 30 -69 46 0 11 139 208 146 208 3 0 16 -11 29 -25z
m3834 -82 c44 -54 81 -106 81 -115 0 -10 -12 -25 -27 -35 l-26 -17 -49 54
c-27 30 -68 79 -91 109 -36 47 -39 54 -24 63 10 5 23 15 30 23 6 8 15 14 18
15 4 0 43 -44 88 -97z m182 -171 c48 -39 17 -122 -46 -122 -40 0 -62 17 -70
57 -5 27 -2 37 19 58 30 30 65 32 97 7z m-3693 -28 c12 -8 22 -23 22 -32 0
-26 -75 -157 -91 -160 -8 -1 -26 8 -41 20 l-26 23 46 83 c25 45 50 82 57 82 6
0 21 -7 33 -16z m400 -130 l31 -15 -28 -77 c-38 -101 -60 -152 -67 -152 -5 0
-66 30 -72 35 -6 5 90 225 98 225 4 0 21 -7 38 -16z m2226 -163 c25 -60 46
-113 46 -119 0 -9 -51 -32 -70 -32 -4 0 -26 44 -48 98 -57 140 -58 140 -30
151 48 20 54 15 102 -98z m-437 -121 c18 -69 29 -128 25 -132 -4 -3 -23 -8
-42 -10 l-35 -3 -26 100 c-14 55 -29 112 -33 128 -5 23 -3 29 16 37 54 22 61
14 95 -120z m-1335 -31 c23 -27 28 -43 28 -85 0 -45 -4 -56 -32 -83 -99 -96
-257 6 -204 132 22 53 69 79 131 74 41 -4 54 -10 77 -38z m892 -204 c31 -31
27 -84 -8 -107 -20 -13 -69 -8 -88 9 -22 20 -23 70 -1 95 20 22 76 24 97 3z"/>
<path d="M4240 1821 c-5 -11 -10 -28 -10 -39 0 -22 30 -52 52 -52 21 0 48 32
48 58 0 46 -69 72 -90 33z"/>
<path d="M6928 7984 c-76 -41 -74 -159 2 -199 80 -41 170 13 170 102 0 87 -94
140 -172 97z"/>
<path d="M6776 7587 c-52 -55 -93 -105 -90 -109 3 -4 58 -44 122 -87 64 -44
159 -117 211 -163 51 -46 99 -87 106 -92 9 -7 33 4 79 35 61 40 66 46 61 73
-3 16 0 45 6 66 11 36 10 38 -98 201 -94 141 -113 164 -129 158 -31 -12 -89
-10 -132 5 l-41 15 -95 -102z"/>
<path d="M6455 7478 c-33 -17 -45 -40 -45 -80 0 -83 101 -118 161 -55 16 17
20 30 15 62 -8 68 -74 105 -131 73z"/>
<path d="M7400 7330 c-12 -12 -20 -33 -20 -55 0 -45 29 -75 74 -75 69 0 107
70 66 123 -27 34 -89 38 -120 7z"/>
<path d="M5176 7300 c-486 -61 -905 -351 -1118 -774 -304 -604 -155 -1322 361
-1749 l44 -36 4 -113 5 -113 -137 -280 c-225 -458 -276 -567 -300 -635 -61
-171 -74 -423 -31 -592 104 -411 464 -715 898 -759 316 -32 608 68 819 280
224 225 330 535 286 838 -20 142 -57 252 -148 439 -201 418 -309 646 -309 653
0 5 21 12 48 16 103 15 252 59 341 101 51 24 95 44 96 44 1 0 25 -29 53 -64
l52 -63 -22 -39 c-26 -49 -19 -101 21 -146 22 -25 37 -32 79 -36 49 -4 64 -14
43 -26 -14 -9 -20 -58 -10 -85 6 -13 40 -57 77 -96 37 -39 125 -140 197 -225
184 -220 528 -622 665 -776 63 -71 143 -165 178 -207 115 -142 220 -193 375
-185 239 12 412 219 394 468 -12 157 -43 213 -253 450 -177 201 -504 579 -832
963 -92 107 -138 153 -169 168 l-43 21 -41 -22 c-49 -25 -60 -19 -36 21 31 55
15 128 -35 163 -32 23 -109 21 -140 -4 l-25 -19 -30 32 c-59 64 -59 58 0 140
108 150 183 328 229 540 17 82 22 135 22 272 0 251 -34 403 -144 630 -231 483
-716 793 -1265 810 -71 2 -161 0 -199 -5z m355 -246 c483 -81 865 -427 986
-893 46 -178 43 -422 -8 -617 -112 -430 -486 -764 -939 -839 -133 -23 -373
-16 -500 14 -216 50 -387 143 -552 299 -180 171 -282 344 -346 581 -22 85 -25
117 -26 271 -1 189 5 232 56 385 77 230 226 439 411 577 91 67 269 159 365
188 168 50 380 63 553 34z m917 -2204 l32 -38 -135 -117 -136 -117 -34 39
c-19 21 -34 40 -35 44 0 3 42 38 93 79 50 41 110 91 132 112 22 21 42 38 45
37 3 0 20 -18 38 -39z m202 -130 c34 -39 61 -72 59 -74 -2 -1 -69 -61 -149
-131 -80 -71 -162 -144 -183 -162 l-38 -34 -32 40 c-18 22 -45 56 -60 75 l-28
34 48 45 c26 24 80 71 118 105 39 33 97 85 130 116 33 30 63 55 66 56 3 0 34
-32 69 -70z m-1860 -171 c30 -12 57 -24 58 -25 2 -1 -14 -42 -36 -91 -53 -117
-72 -185 -72 -253 0 -115 56 -207 156 -256 46 -23 64 -26 113 -21 98 8 179 61
221 143 21 41 25 63 25 134 -1 74 -6 97 -38 179 -20 51 -37 96 -37 100 0 3 42
4 92 1 l93 -5 75 -150 c130 -260 340 -700 340 -713 0 -7 -13 -12 -30 -12 -16
0 -30 -2 -30 -4 0 -3 9 -42 20 -88 45 -192 45 -357 -1 -513 -42 -140 -126
-268 -237 -359 -118 -96 -290 -163 -355 -137 -25 10 -28 15 -25 47 3 37 4 37
96 74 186 75 297 177 372 344 66 144 75 317 30 529 l-23 107 -699 0 -699 0 7
23 c4 12 101 215 215 450 l209 428 0 74 0 75 53 -29 c28 -16 77 -39 107 -52z
m2075 -39 c62 -66 920 -1052 1017 -1170 57 -68 80 -125 82 -200 1 -93 -19
-153 -71 -208 l-43 -47 22 45 c18 35 23 61 22 120 0 94 -17 128 -122 249 -548
630 -949 1097 -1012 1178 l-49 61 32 26 c18 14 37 24 42 23 6 -1 42 -36 80
-77z m-1430 -1340 c49 -54 -6 -144 -72 -119 -51 19 -65 85 -27 123 22 23 77
20 99 -4z"/>
<path d="M4980 6768 c-77 -146 -141 -263 -282 -517 -208 -373 -233 -436 -233
-601 0 -144 23 -226 96 -334 118 -177 309 -276 532 -276 166 0 306 57 418 169
107 107 162 245 162 406 0 151 -32 226 -279 666 -75 134 -182 331 -236 437
-55 105 -101 192 -102 192 -1 0 -35 -64 -76 -142z m162 -328 c46 -85 138 -249
203 -364 65 -116 132 -244 149 -285 27 -68 30 -87 30 -186 1 -91 -3 -120 -22
-165 -29 -75 -106 -159 -180 -198 -158 -84 -320 -78 -503 19 -151 81 -238 268
-209 450 15 98 46 168 190 431 67 122 152 276 187 341 36 65 66 117 68 115 1
-2 40 -73 87 -158z"/>
<path d="M6920 7033 c-72 -27 -78 -143 -9 -178 89 -47 179 38 137 130 -19 43
-80 65 -128 48z"/>
<path d="M1978 6464 c-78 -42 -75 -156 5 -198 66 -36 149 4 163 80 17 94 -83
165 -168 118z"/>
<path d="M7619 6327 c-45 -30 -79 -83 -79 -123 0 -30 -7 -36 -97 -92 -93 -58
-98 -60 -125 -46 -15 8 -50 14 -79 14 -61 0 -108 -25 -138 -74 -28 -45 -28
-129 -1 -173 22 -37 86 -73 128 -73 28 0 29 -2 36 -61 3 -34 6 -93 6 -130 0
-64 -2 -70 -27 -86 -79 -49 -113 -105 -113 -188 0 -143 127 -235 265 -191 29
9 60 25 70 36 18 19 18 19 54 -8 20 -16 60 -43 89 -61 l52 -33 -40 -39 c-45
-44 -55 -71 -48 -134 14 -119 147 -174 244 -100 91 70 77 211 -26 260 l-35 17
40 20 c22 12 102 56 178 99 91 52 149 79 170 79 72 0 114 91 64 138 -45 43
-137 15 -137 -42 0 -11 -17 -25 -47 -38 -27 -11 -105 -52 -174 -89 -69 -38
-131 -69 -137 -69 -6 0 -46 23 -90 51 l-79 50 -6 53 c-9 88 -51 153 -123 189
-30 15 -31 20 -37 93 -12 141 -9 218 13 265 11 24 20 63 20 86 0 39 3 43 48
68 26 15 62 39 80 52 l33 24 42 -20 c123 -60 257 15 257 142 0 86 -75 157
-165 157 -38 0 -61 -6 -86 -23z m-219 -962 c37 -38 36 -108 -3 -141 -44 -38
-97 -33 -136 11 -36 41 -39 67 -11 113 35 58 102 65 150 17z"/>
<path d="M8308 5998 c-44 -54 -4 -138 65 -138 69 0 105 90 54 138 -32 30 -95
30 -119 0z"/>
<path d="M2506 5777 c-76 -82 -150 -270 -163 -413 -17 -196 86 -474 176 -474
30 0 71 32 71 55 0 8 -18 53 -41 100 -69 146 -84 264 -50 398 25 96 54 164 97
224 38 54 44 101 16 126 -30 28 -71 21 -106 -16z"/>
<path d="M1734 5666 c-44 -19 -64 -53 -64 -104 0 -87 94 -140 170 -96 15 9 35
29 44 44 53 91 -52 200 -150 156z"/>
<path d="M1857 4056 c-70 -65 -29 -176 65 -176 32 0 47 7 74 34 36 36 43 70
23 109 -31 60 -114 77 -162 33z"/>
<path d="M6582 2213 c-17 -7 -42 -57 -42 -86 0 -61 73 -102 130 -72 54 28 65
86 24 134 -20 25 -33 31 -62 30 -21 0 -43 -3 -50 -6z"/>
</g>
</svg>
